<svg xmlns="http://www.w3.org/2000/svg" xmlns:xlink="http://www.w3.org/1999/xlink" width="860" height="581.04"><rect width="860" height="581.04" rx="5" ry="5" class="a"/><svg y="0%" x="0%"><circle cx="20" cy="20" r="6" fill="#ff5f58"/><circle cx="40" cy="20" r="6" fill="#ffbd2e"/><circle cx="60" cy="20" r="6" fill="#18c132"/></svg><svg height="521.04" viewBox="0 0 82 52.104" width="820" x="15" xmlns="http://www.w3.org/2000/svg" xmlns:xlink="http://www.w3.org/1999/xlink" y="50"><style>@keyframes i{0%{transform:translateX(0)}6.3%{transform:translateX(-82px)}11.3%{transform:translateX(-164px)}26.3%{transform:translateX(-246px)}35%{transform:translateX(-328px)}60.1%{transform:translateX(-410px)}65.1%{transform:translateX(-492px)}75.1%{transform:translateX(-574px)}to{transform:translateX(-656px)}}.a{fill:#282d35}.f{fill:#b9c0cb;white-space:pre}</style><g font-family="Monaco,Consolas,Menlo,'Bitstream Vera Sans Mono','Powerline Symbols',monospace" font-size="1.67"><defs><symbol id="1"><text y="1.67" class="f">$</text><text x="2.004" y="1.67" class="f">python</text><text x="9.018" y="1.67" class="f">train.py</text></symbol><symbol id="2"><text y="1.67" class="f">Traceback</text><text x="10.02" y="1.67" class="f">(most</text><text x="16.032" y="1.67" class="f">recent</text><text x="23.046" y="1.67" class="f">call</text><text x="28.056" y="1.67" class="f">last):</text></symbol><symbol id="3"><text x="2.004" y="1.67" class="f">File</text><text x="7.014" y="1.67" class="f">&quot;train.py&quot;,</text><text x="19.038" y="1.67" class="f">line</text><text x="24.048" y="1.67" class="f">3,</text><text x="27.054" y="1.67" class="f">in</text><text x="30.06" y="1.67" class="f">&lt;module&gt;</text></symbol><symbol id="4"><text x="4.008" y="1.67" class="f">import</text><text x="11.022" y="1.67" class="f">torch</text></symbol><symbol id="5"><text y="1.67" class="f">ModuleNotFoundError:</text><text x="21.042" y="1.67" class="f">No</text><text x="24.048" y="1.67" class="f">module</text><text x="31.062" y="1.67" class="f">named</text><text x="37.074" y="1.67" class="f">&apos;torch&apos;</text></symbol><symbol id="6"><text y="1.67" class="f">$</text><text x="2.004" y="1.67" class="f">fixcache</text><text x="11.022" y="1.67" class="f">activate</text><text x="20.04" y="1.67" class="f">&lt;&lt;&lt;</text><text x="24.048" y="1.67" class="f">$&apos;ModuleNotFoundError:</text><text x="47.094" y="1.67" class="f">No</text><text x="50.1" y="1.67" class="f">module</text><text x="57.114" y="1.67" class="f">named</text><text x="63.126" y="1.67" class="f">&apos;\&apos;&apos;torch&apos;\&apos;&apos;&apos;</text></symbol><symbol id="7"><text y="1.67" class="f">💡</text><text x="3.006" y="1.67" class="f">fixcache:</text><text x="13.026" y="1.67" class="f">matched</text><text x="21.042" y="1.67" class="f">fingerprint</text><text x="33.066" y="1.67" class="f">2a49b2ca91c012e5</text></symbol><symbol id="8"><text x="3.006" y="1.67" class="f">seen</text><text x="8.016" y="1.67" class="f">83x</text><text x="12.024" y="1.67" class="f">—</text><text x="14.028" y="1.67" class="f">efficacy</text><text x="23.046" y="1.67" class="f">100%</text><text x="28.056" y="1.67" class="f">(8</text><text x="31.062" y="1.67" class="f">pass</text><text x="36.072" y="1.67" class="f">/</text><text x="38.076" y="1.67" class="f">0</text><text x="40.08" y="1.67" class="f">fail)</text></symbol><symbol id="9"><text x="2.004" y="1.67" class="f">[1]</text><text x="6.012" y="1.67" class="f">Fix</text><text x="10.02" y="1.67" class="f">for:</text><text x="15.03" y="1.67" class="f">ModuleNotFoundError:</text><text x="36.072" y="1.67" class="f">No</text><text x="39.078" y="1.67" class="f">module</text><text x="46.092" y="1.67" class="f">named</text><text x="52.104" y="1.67" class="f">&apos;torch&apos;</text><text x="61.122" y="1.67" class="f">(conf=0.75,</text><text x="73.146" y="1.67" class="f">freq=2)</text></symbol><symbol id="10"><text x="6.012" y="1.67" class="f">→</text><text x="8.016" y="1.67" class="f">pip</text><text x="12.024" y="1.67" class="f">install</text><text x="20.04" y="1.67" class="f">torch</text></symbol><symbol id="11"><text x="6.012" y="1.67" class="f">→</text><text x="8.016" y="1.67" class="f">check</text><text x="14.028" y="1.67" class="f">CUDA</text><text x="19.038" y="1.67" class="f">version</text><text x="27.054" y="1.67" class="f">matches</text></symbol><symbol id="12"><text x="2.004" y="1.67" class="f">[2]</text><text x="6.012" y="1.67" class="f">Fix</text><text x="10.02" y="1.67" class="f">for:</text><text x="15.03" y="1.67" class="f">ModuleNotFoundError:</text><text x="36.072" y="1.67" class="f">No</text><text x="39.078" y="1.67" class="f">module</text><text x="46.092" y="1.67" class="f">named</text><text x="52.104" y="1.67" class="f">&apos;botocore&apos;</text><text x="64.128" y="1.67" class="f">(conf=0.75,</text><text x="76.152" y="1.67" class="f">freq=2</text></symbol><symbol id="13"><text y="1.67" class="f">)</text></symbol><symbol id="14"><text x="6.012" y="1.67" class="f">→</text><text x="8.016" y="1.67" class="f">pip</text><text x="12.024" y="1.67" class="f">install</text><text x="20.04" y="1.67" class="f">boto3</text><text x="26.052" y="1.67" class="f">botocore</text></symbol><symbol id="15"><text x="6.012" y="1.67" class="f">→</text><text x="8.016" y="1.67" class="f">or:</text><text x="12.024" y="1.67" class="f">pip</text><text x="16.032" y="1.67" class="f">install</text><text x="24.048" y="1.67" class="f">litellm[bedrock]</text></symbol><symbol id="16"><text x="2.004" y="1.67" class="f">[3]</text><text x="6.012" y="1.67" class="f">Fix</text><text x="10.02" y="1.67" class="f">for:</text><text x="15.03" y="1.67" class="f">ModuleNotFoundError:</text><text x="36.072" y="1.67" class="f">No</text><text x="39.078" y="1.67" class="f">module</text><text x="46.092" y="1.67" class="f">named</text><text x="52.104" y="1.67" class="f">&apos;fastapi_sso&apos;</text><text x="67.134" y="1.67" class="f">(conf=0.75,</text><text x="79.158" y="1.67" class="f">fre</text></symbol><symbol id="17"><text y="1.67" class="f">q=2)</text></symbol><symbol id="18"><text x="6.012" y="1.67" class="f">→</text><text x="8.016" y="1.67" class="f">pip</text><text x="12.024" y="1.67" class="f">install</text><text x="20.04" y="1.67" class="f">fastapi-sso</text></symbol><symbol id="19"><text x="3.006" y="1.67" class="f">Apply?</text><text x="10.02" y="1.67" class="f">Run:</text><text x="15.03" y="1.67" class="f">fixcache</text><text x="24.048" y="1.67" class="f">darwin</text><text x="31.062" y="1.67" class="f">report</text><text x="38.076" y="1.67" class="f">4ee12329-e33c-4639-ace5-7658250ad7c8</text><text x="75.15" y="1.67" class="f">success</text></symbol><symbol id="20"><text x="2.004" y="1.67" class="f">#</text><text x="4.008" y="1.67" class="f">or</text><text x="7.014" y="1.67" class="f">&apos;failure&apos;</text></symbol><symbol id="21"><text y="1.67" class="f">$</text><text x="2.004" y="1.67" class="f">cd</text><text x="5.01" y="1.67" class="f">~/other-project</text><text x="21.042" y="1.67" class="f">&amp;&amp;</text><text x="24.048" y="1.67" class="f">python</text><text x="31.062" y="1.67" class="f">inference.py</text></symbol><symbol id="22"><text x="2.004" y="1.67" class="f">File</text><text x="7.014" y="1.67" class="f">&quot;inference.py&quot;,</text><text x="23.046" y="1.67" class="f">line</text><text x="28.056" y="1.67" class="f">1,</text><text x="31.062" y="1.67" class="f">in</text><text x="34.068" y="1.67" class="f">&lt;module&gt;</text></symbol><symbol id="23"><text y="1.67" class="f">💡</text><text x="3.006" y="1.67" class="f">fixcache:</text><text x="13.026" y="1.67" class="f">matched</text><text x="21.042" y="1.67" class="f">fingerprint</text><text x="34.068" y="1.67" class="f">a3f9c2d1</text><text x="44.088" y="1.67" class="f">(different</text><text x="55.11" y="1.67" class="f">repo,</text><text x="61.122" y="1.67" class="f">same</text><text x="66.132" y="1.67" class="f">fix)</text></symbol><symbol id="24"><text x="3.006" y="1.67" class="f">→</text><text x="5.01" y="1.67" class="f">pip</text><text x="9.018" y="1.67" class="f">install</text><text x="17.034" y="1.67" class="f">torch</text><text x="23.046" y="1.67" class="f">--index-url</text><text x="35.07" y="1.67" class="f">https://download.pytorch.org/whl/cu118</text></symbol><symbol id="a"><path fill="transparent" d="M0 0h82v25H0z"/></symbol><symbol id="b"><path fill="#6f7683" d="M0 0h1.102v2.171H0z"/></symbol></defs><path class="a" d="M0 0h82v52.104H0z"/><g style="animation-duration:8.034551s;animation-iteration-count:infinite;animation-name:i;animation-timing-function:steps(1,end)"><svg width="738"><svg><use xlink:href="#a"/><use xlink:href="#b" x="-.004"/></svg><svg x="82"><use xlink:href="#a"/><use xlink:href="#b" x="-.004" y="2.146"/><use xlink:href="#1"/></svg><svg x="164"><use xlink:href="#a"/><use xlink:href="#b" x="-.004" y="10.83"/><use xlink:href="#1"/><use xlink:href="#2" y="2.171"/><use xlink:href="#3" y="4.342"/><use xlink:href="#4" y="6.513"/><use xlink:href="#5" y="8.684"/></svg><svg x="246"><use xlink:href="#a"/><use xlink:href="#b" x="-.004" y="15.172"/><use xlink:href="#1"/><use xlink:href="#2" y="2.171"/><use xlink:href="#3" y="4.342"/><use xlink:href="#4" y="6.513"/><use xlink:href="#5" y="8.684"/><use xlink:href="#6" y="13.026"/></svg><svg x="328"><use xlink:href="#a"/><use xlink:href="#b" x="-.004" y="52.079"/><use xlink:href="#4"/><use xlink:href="#5" y="2.171"/><use xlink:href="#6" y="6.513"/><use xlink:href="#7" y="10.855"/><use xlink:href="#8" y="13.026"/><use xlink:href="#9" y="17.368"/><use xlink:href="#10" y="19.539"/><use xlink:href="#11" y="21.71"/><use xlink:href="#12" y="26.052"/><use xlink:href="#13" y="28.223"/><use xlink:href="#14" y="30.394"/><use xlink:href="#15" y="32.565"/><use xlink:href="#16" y="36.907"/><use xlink:href="#17" y="39.078"/><use xlink:href="#18" y="41.249"/><use xlink:href="#19" y="45.591"/><use xlink:href="#20" y="47.762"/></svg><svg x="410"><use xlink:href="#a"/><use xlink:href="#b" x="-.004" y="52.079"/><use xlink:href="#5"/><use xlink:href="#6" y="4.342"/><use xlink:href="#7" y="8.684"/><use xlink:href="#8" y="10.855"/><use xlink:href="#9" y="15.197"/><use xlink:href="#10" y="17.368"/><use xlink:href="#11" y="19.539"/><use xlink:href="#12" y="23.881"/><use xlink:href="#13" y="26.052"/><use xlink:href="#14" y="28.223"/><use xlink:href="#15" y="30.394"/><use xlink:href="#16" y="34.736"/><use xlink:href="#17" y="36.907"/><use xlink:href="#18" y="39.078"/><use xlink:href="#19" y="43.42"/><use xlink:href="#20" y="45.591"/><use xlink:href="#21" y="49.933"/></svg><svg x="492"><use xlink:href="#a"/><use xlink:href="#b" x="-.004" y="52.079"/><use xlink:href="#7"/><use xlink:href="#8" y="2.171"/><use xlink:href="#9" y="6.513"/><use xlink:href="#10" y="8.684"/><use xlink:href="#11" y="10.855"/><use xlink:href="#12" y="15.197"/><use xlink:href="#13" y="17.368"/><use xlink:href="#14" y="19.539"/><use xlink:href="#15" y="21.71"/><use xlink:href="#16" y="26.052"/><use xlink:href="#17" y="28.223"/><use xlink:href="#18" y="30.394"/><use xlink:href="#19" y="34.736"/><use xlink:href="#20" y="36.907"/><use xlink:href="#21" y="41.249"/><use xlink:href="#2" y="43.42"/><use xlink:href="#22" y="45.591"/><use xlink:href="#4" y="47.762"/><use xlink:href="#5" y="49.933"/></svg><svg x="574"><use xlink:href="#a"/><use xlink:href="#b" x="-.004" y="52.079"/><use xlink:href="#9"/><use xlink:href="#10" y="2.171"/><use xlink:href="#11" y="4.342"/><use xlink:href="#12" y="8.684"/><use xlink:href="#13" y="10.855"/><use xlink:href="#14" y="13.026"/><use xlink:href="#15" y="15.197"/><use xlink:href="#16" y="19.539"/><use xlink:href="#17" y="21.71"/><use xlink:href="#18" y="23.881"/><use xlink:href="#19" y="28.223"/><use xlink:href="#20" y="30.394"/><use xlink:href="#21" y="34.736"/><use xlink:href="#2" y="36.907"/><use xlink:href="#22" y="39.078"/><use xlink:href="#4" y="41.249"/><use xlink:href="#5" y="43.42"/><use xlink:href="#23" y="47.762"/><use xlink:href="#24" y="49.933"/></svg><svg x="656"><use xlink:href="#a"/><use xlink:href="#b" x="-.004" y="52.079"/><use xlink:href="#12" y="2.171"/><use xlink:href="#13" y="4.342"/><use xlink:href="#14" y="6.513"/><use xlink:href="#15" y="8.684"/><use xlink:href="#16" y="13.026"/><use xlink:href="#17" y="15.197"/><use xlink:href="#18" y="17.368"/><use xlink:href="#19" y="21.71"/><use xlink:href="#20" y="23.881"/><use xlink:href="#21" y="28.223"/><use xlink:href="#2" y="30.394"/><use xlink:href="#22" y="32.565"/><use xlink:href="#4" y="34.736"/><use xlink:href="#5" y="36.907"/><use xlink:href="#23" y="41.249"/><use xlink:href="#24" y="43.42"/><text y="49.432" class="f">#</text><text x="2.004" y="49.432" class="f">Different</text><text x="12.024" y="49.432" class="f">repo.</text><text x="18.036" y="49.432" class="f">Same</text><text x="23.046" y="49.432" class="f">fix.</text><text x="28.056" y="49.432" class="f">Zero</text><text x="33.066" y="49.432" class="f">effort.</text><text y="51.603" class="f">#</text><text x="2.004" y="51.603" class="f">pip</text><text x="6.012" y="51.603" class="f">install</text><text x="14.028" y="51.603" class="f">fixcache</text></svg></svg></g></g></svg></svg>